<?xml version="1.0" encoding="utf-8"?>
<!-- Generator: Adobe Illustrator 21.1.0, SVG Export Plug-In . SVG Version: 6.00 Build 0)  -->
<svg version="1.1" xmlns="http://www.w3.org/2000/svg" xmlns:xlink="http://www.w3.org/1999/xlink" x="0px" y="0px"
	 viewBox="0 0 478.3 106.7" style="enable-background:new 0 0 478.3 106.7;" xml:space="preserve">
<style type="text/css">
	.st0{fill:#FFFFFF;}
	.st1{fill:none;stroke:#FFFFFF;stroke-width:0.6919;stroke-miterlimit:10;}
	.st2{display:none;}
	.st3{display:inline;fill:none;stroke:#D1D3D4;stroke-miterlimit:10;stroke-dasharray:2,3;}
	.st4{display:inline;fill:#D1D3D4;}
</style>
<g id="Layer_1">
	<g>
		<g>
			<path class="st0" d="M124.9,76l-3.6-11.4h-13.1L104.4,76h-4.7l12.9-38.2h4.6L130.2,76H124.9z M116,47c-0.9-3-1.1-4.6-1.1-4.6
				h-0.1c0,0-0.2,1.6-1.2,4.6l-4.6,14.5h11.4L116,47z"/>
			<path class="st0" d="M135.5,76V32.4h4.9V76H135.5z"/>
			<path class="st0" d="M157.8,76.3c-5.4,0-7.4-3.9-7.4-7.6V49.1h-3.4v-3.1h3.4v-6.9l4.9-1.5v8.4h5.2v3.1h-5.2v19.5
				c0,2.4,1.1,4.3,3.8,4.3c0.5,0,0.9-0.1,1.4-0.2v3.1C159.9,76,159,76.3,157.8,76.3z"/>
			<path class="st0" d="M176.4,76.6c-7.8,0-11.4-3.4-11.4-8.8c0-7.9,7.4-10.3,16.7-11.2v-1.8c0-4.6-2.8-5.9-6.6-5.9
				c-2.9,0-5.6,1.1-7.2,1.9l-1.2-2.9c1.7-0.9,5.1-2.2,9.2-2.2c5.6,0,10.4,2.4,10.4,9.7v19.2C184.1,75.7,180.6,76.6,176.4,76.6z
				 M181.7,59c-7.6,0.9-12.1,2.6-12.1,8.6c0,4.3,2.7,6.1,7.1,6.1c1.9,0,3.7-0.3,4.9-1V59z"/>
			<path class="st0" d="M197,40.3c-1.6,0-2.9-1.2-2.9-2.7c0-1.5,1.3-2.7,2.9-2.7c1.6,0,2.8,1.2,2.8,2.7
				C199.8,39.1,198.6,40.3,197,40.3z M194.6,76V46.1h4.9V76H194.6z"/>
			<path class="st0" d="M219.3,49.3c-2.4-0.7-5.2-0.5-6.8,0.6V76h-4.9V47.7c2.9-1.5,5.8-2.3,12.9-2.1L219.3,49.3z"/>
		</g>
		<g>
			<path class="st0" d="M62.5,30.7l-0.1,0h-0.1l-10.6,0c-1.9,0-2.4,1.8-2.4,1.8s-6.3,16.7-8,20.4l5.6-6.1l9.9-10.9l2.7-2.9
				c1-1.1,1.6-1.6,2.1-1.9C62,30.7,62.4,30.7,62.5,30.7C62.6,30.7,62.6,30.7,62.5,30.7z"/>
			<polygon class="st0" points="71.2,54.8 70.4,52.1 71.2,54.7 			"/>
			<polygon class="st0" points="71.2,54.7 71.2,54.8 70.4,52.1 			"/>
			<polygon class="st0" points="71.2,54.7 71.2,54.8 70.4,52.1 			"/>
			<path class="st0" d="M82.1,63.7L68.6,46.5l1.8,5.6l0.8,2.7l5.6,17.8c0.5,1.5,0.6,2.2,0.6,2.8c0,0.5-0.1,0.8-0.2,0.9l0,0l0.1-0.1
				l5.1-9.5C83.2,65.1,82.1,63.7,82.1,63.7z"/>
			<path class="st0" d="M70.4,52.1l-1.8-5.6l-4.4-13.8c0,0-0.7-2.1-1.7-2.1c-0.2,0-0.5,0.1-1,0.3c-0.5,0.3-1.1,0.8-2.1,1.9l-2.7,2.9
				L67.3,48c0,0,2.2,2.5,3.5,5.9c0.1,0.3,0.3,0.6,0.4,1l0,0l0-0.1L70.4,52.1z"/>
			<path class="st0" d="M43.9,49.9L31.3,63.7c0,0-1.4,1.6-1,2.5l0.1,0.1c0.1,0.1,0.3,0.3,0.6,0.6c0.5,0.3,1.2,0.6,2.7,0.9l3.9,0.8
				L43,53.4c0,0,1.1-3.1,3.3-5.9c0.2-0.3,0.4-0.6,0.6-0.8l0,0L43.9,49.9z"/>
			<path class="st0" d="M76.8,72.5l-0.7-2.2l-0.5-1.5l-15.9,3c0,0-3.2,0.7-6.8,0.1c-0.3,0-0.6-0.1-0.9-0.2l0.7,0.2l6.4,1.4l1,0.2
				l14.4,3.2c0,0,2,0.5,2.6-0.4l0-0.1c0.1-0.2,0.2-0.5,0.2-0.9C77.4,74.8,77.3,74,76.8,72.5z"/>
			<path class="st0" d="M30.4,66.3L30.4,66.3L30.4,66.3z"/>
			<path class="st0" d="M59.2,73.4l-6.4-1.4L52,71.8l-18.2-4c-1.5-0.3-2.2-0.6-2.7-0.9c-0.4-0.2-0.5-0.4-0.6-0.6h0
				c0.2,0.3,5.7,9.2,5.7,9.2c0.9,1.5,2.7,1.2,2.7,1.2l21.3-3.2l0,0L59.2,73.4z"/>
		</g>
	</g>
	<line class="st1" x1="242.4" y1="25.9" x2="242.4" y2="87"/>
	<g>
		<path class="st0" d="M271.1,59.2c-0.7,0-1.4-0.1-2-0.2v17.1h-4.9V39.1c2.1-1.2,4.7-1.9,7.2-1.9c7,0,10.4,4.1,10.4,10.8
			C281.9,54.7,278.2,59.2,271.1,59.2z M271.6,41c-0.8,0-1.7,0.1-2.5,0.5v13.9c0.5,0.1,1.1,0.1,1.8,0.1c4.5,0,6-3,6-7.3
			C277,43.8,275.7,41,271.6,41z"/>
		<path class="st0" d="M293.5,76.6c-2.7,0-5.5-0.6-7.7-1.9V39.1c2.2-1.2,4.8-1.9,7.5-1.9c6.9,0,10.2,3.8,10.2,10.4
			c0,3.6-1.9,7.2-5.3,8.6v0.1c3.7,1.6,5.8,5,5.8,9.4C304,73,300.1,76.6,293.5,76.6z M293.2,41c-0.9,0-1.8,0.1-2.7,0.5v13.4h1.5
			c4.3,0,6.5-2.4,6.5-7C298.6,43.3,297.2,41,293.2,41z M292.1,58h-1.6v14.1c0.8,0.3,1.8,0.5,2.7,0.5c3.7,0,5.8-2.2,5.8-7.2
			C299.1,60.4,296.7,58,292.1,58z"/>
		<path class="st0" d="M313.5,76.6c-2.3,0-4.7-0.6-6.5-1.8l1.3-3.9c1.2,0.8,2.9,1.3,4.4,1.3c3.1,0,4.9-2.7,4.9-5.5
			c0-8.5-10.3-9.4-10.3-20.2c0-5.7,3.6-9.3,9.1-9.3c2.3,0,4.4,0.6,6,1.8l-1.1,3.6c-1.1-0.7-2.6-1.2-4.2-1.2c-2.9,0-4.9,2.2-4.9,5.2
			c0,8.4,10.4,9.3,10.4,20.2C322.7,72.2,319.1,76.6,313.5,76.6z"/>
		<path class="st0" d="M361.8,76.1h-4.6L353,50.9c-0.2-1.5-0.4-3.3-0.5-4.6h-0.1c-0.1,1.3-0.3,3.1-0.5,4.6l-4.2,25.2H343l-6.6-38.4
			h5l3.7,25.8c0.2,1.6,0.3,3,0.4,4.5h0.1c0.1-1.5,0.4-3.1,0.6-4.5l4.3-25.8h4.1l4.3,25.8c0.2,1.5,0.4,3,0.5,4.5h0.1
			c0.1-1.5,0.3-3.1,0.5-4.5l3.7-25.8h4.6L361.8,76.1z"/>
		<path class="st0" d="M378.4,76.6c-6.4,0-8.6-6.1-8.6-14.4s2.3-14.4,8.6-14.4c6.4,0,8.6,6.1,8.6,14.4S384.8,76.6,378.4,76.6z
			 M378.4,51.3c-3,0-3.8,4.4-3.8,10.7c0,6.3,0.8,10.8,3.8,10.8c3,0,3.8-4.4,3.8-10.8C382.2,55.7,381.4,51.3,378.4,51.3z"/>
		<path class="st0" d="M400.7,52c-0.6-0.3-1.5-0.5-2.4-0.5c-0.8,0-1.5,0.1-2.2,0.4v24.2h-4.8V49.6c1.9-1.1,4.9-1.8,7.6-1.8
			c0.9,0,1.9,0.1,2.7,0.2L400.7,52z"/>
		<path class="st0" d="M416.9,76.1l-6.1-12c-0.3-0.7-0.7-1.6-0.9-2.2h-0.1v14.2h-4.7V37.7h4.7v23.6h0.1c0.3-0.7,0.6-1.4,0.9-2
			l6-11.1h5.2l-7.8,13.4l8.1,14.6H416.9z"/>
		<path class="st0" d="M430.3,76.6c-2.2,0-4.1-0.5-5.8-1.8l1.2-3.6c1.1,0.8,2.6,1.3,3.9,1.3c1.9,0,3.3-1.5,3.3-3.5
			c0-5.8-8.1-5.8-8.1-13.8c0-4.3,2.7-7.5,7.2-7.5c2.2,0,4,0.6,5.4,1.8l-1.2,3.3c-1-0.7-2.2-1.2-3.5-1.2c-2.1,0-3.2,1.5-3.2,3.6
			c0,5.4,8.3,5.5,8.3,13.8C437.9,73.5,434.6,76.6,430.3,76.6z"/>
		<path class="st0" d="M441.3,38.5v4.8h-0.9v-4.8h-1v-0.7h2.9v0.7H441.3z M446.6,43.3l-0.3-3.7c0-0.3,0-0.5,0-0.7h0
			c0,0.2-0.1,0.4-0.1,0.7l-0.9,3.7h-0.6l-0.9-3.7c0-0.2-0.1-0.5-0.1-0.7h0c0,0.2,0,0.4,0,0.7l-0.3,3.7h-0.8l0.6-5.5h0.9l0.8,3.4
			c0,0.2,0.1,0.4,0.1,0.7h0c0-0.2,0.1-0.5,0.1-0.7l0.8-3.4h0.9l0.6,5.5H446.6z"/>
	</g>
</g>
<g id="Guide" class="st2">
	<line class="st3" x1="0" y1="-85.3" x2="498.2" y2="-85.3"/>
	<line class="st3" x1="0" y1="-39.9" x2="498.2" y2="-39.9"/>
	<line class="st3" x1="30.6" y1="-116" x2="30.6" y2="-9.3"/>
	<line class="st3" x1="467.6" y1="-116" x2="467.6" y2="-9.3"/>
	<rect y="-116" class="st4" width="30.6" height="30.6"/>
	<rect y="-39.9" class="st4" width="30.6" height="30.6"/>
	<rect x="467.6" y="-116" class="st4" width="30.6" height="30.6"/>
	<rect x="467.6" y="-39.9" class="st4" width="30.6" height="30.6"/>
	<line class="st3" x1="0" y1="30.6" x2="478.3" y2="30.6"/>
	<line class="st3" x1="0" y1="76.1" x2="478.3" y2="76.1"/>
	<line class="st3" x1="30.6" y1="0" x2="30.6" y2="106.7"/>
	<line class="st3" x1="447.6" y1="0" x2="447.6" y2="106.7"/>
	<rect class="st4" width="30.6" height="30.6"/>
	<rect y="76.1" class="st4" width="30.6" height="30.6"/>
	<rect x="447.6" class="st4" width="30.6" height="30.6"/>
	<rect x="447.6" y="76.1" class="st4" width="30.6" height="30.6"/>
	<line class="st3" x1="0" y1="146.7" x2="530.6" y2="146.7"/>
	<line class="st3" x1="0" y1="192" x2="530.6" y2="192"/>
	<line class="st3" x1="30.6" y1="116" x2="30.6" y2="222.7"/>
	<line class="st3" x1="500" y1="116" x2="500" y2="222.7"/>
	<rect y="116" class="st4" width="30.6" height="30.6"/>
	<rect y="192.1" class="st4" width="30.6" height="30.6"/>
	<rect x="500" y="116" class="st4" width="30.6" height="30.6"/>
	<rect x="500" y="192.1" class="st4" width="30.6" height="30.6"/>
	<line class="st3" x1="0" y1="262.7" x2="552.3" y2="262.7"/>
	<line class="st3" x1="0" y1="308" x2="552.3" y2="308"/>
	<line class="st3" x1="30.6" y1="232" x2="30.6" y2="338.7"/>
	<line class="st3" x1="521.7" y1="232.3" x2="521.7" y2="339"/>
	<rect y="232" class="st4" width="30.6" height="30.6"/>
	<rect y="308.1" class="st4" width="30.6" height="30.6"/>
	<rect x="521.7" y="232" class="st4" width="30.6" height="30.6"/>
	<rect x="521.7" y="308.1" class="st4" width="30.6" height="30.6"/>
	<line class="st3" x1="0" y1="378.7" x2="590.8" y2="378.7"/>
	<line class="st3" x1="0" y1="424" x2="590.8" y2="424"/>
	<line class="st3" x1="30.6" y1="348" x2="30.6" y2="454.7"/>
	<line class="st3" x1="560.2" y1="348" x2="560.2" y2="454.7"/>
	<rect y="348" class="st4" width="30.6" height="30.6"/>
	<rect y="424.1" class="st4" width="30.6" height="30.6"/>
	<rect x="560.2" y="348" class="st4" width="30.6" height="30.6"/>
	<rect x="560.2" y="424.1" class="st4" width="30.6" height="30.6"/>
	<line class="st3" x1="0" y1="494.6" x2="415.8" y2="494.6"/>
	<line class="st3" x1="0" y1="540.1" x2="415.8" y2="540.1"/>
	<line class="st3" x1="30.6" y1="464" x2="30.6" y2="570.7"/>
	<line class="st3" x1="385.1" y1="464" x2="385.1" y2="570.7"/>
	<rect y="464" class="st4" width="30.6" height="30.6"/>
	<rect y="540.1" class="st4" width="30.6" height="30.6"/>
	<rect x="385.1" y="464" class="st4" width="30.6" height="30.6"/>
	<rect x="385.1" y="540.1" class="st4" width="30.6" height="30.6"/>
</g>
</svg>
