<?xml version="1.0" encoding="UTF-8" standalone="no"?>
<!-- Generator: Adobe Illustrator 21.1.0, SVG Export Plug-In . SVG Version: 6.00 Build 0)  -->

<svg
   xmlns:dc="http://purl.org/dc/elements/1.1/"
   xmlns:cc="http://creativecommons.org/ns#"
   xmlns:rdf="http://www.w3.org/1999/02/22-rdf-syntax-ns#"
   xmlns:svg="http://www.w3.org/2000/svg"
   xmlns="http://www.w3.org/2000/svg"
   xmlns:sodipodi="http://sodipodi.sourceforge.net/DTD/sodipodi-0.dtd"
   xmlns:inkscape="http://www.inkscape.org/namespaces/inkscape"
   version="1.1"
   x="0px"
   y="0px"
   viewBox="0 0 417.17189 61.1"
   xml:space="preserve"
   id="svg162"
   sodipodi:docname="Altair_PBSWorks_WHITE_horizontal.svg"
   width="417.17188"
   height="61.099998"
   inkscape:version="0.92.1 r15371"><metadata
     id="metadata168"><rdf:RDF><cc:Work
         rdf:about=""><dc:format>image/svg+xml</dc:format><dc:type
           rdf:resource="http://purl.org/dc/dcmitype/StillImage" /><dc:title></dc:title></cc:Work></rdf:RDF></metadata><defs
     id="defs166" /><sodipodi:namedview
     pagecolor="#ffffff"
     bordercolor="#666666"
     borderopacity="1"
     objecttolerance="10"
     gridtolerance="10"
     guidetolerance="10"
     inkscape:pageopacity="0"
     inkscape:pageshadow="2"
     inkscape:window-width="1243"
     inkscape:window-height="693"
     id="namedview164"
     showgrid="false"
     inkscape:pagecheckerboard="true"
     fit-margin-top="0"
     fit-margin-left="0"
     fit-margin-right="0"
     fit-margin-bottom="0"
     inkscape:zoom="0.65649176"
     inkscape:cx="208.92187"
     inkscape:cy="33.650002"
     inkscape:window-x="0"
     inkscape:window-y="0"
     inkscape:window-maximized="0"
     inkscape:current-layer="svg162" /><style
     type="text/css"
     id="style2">
	.st0{fill:#FFFFFF;}
	.st1{fill:none;stroke:#FFFFFF;stroke-width:0.6919;stroke-miterlimit:10;}
	.st2{display:none;}
	.st3{display:inline;fill:none;stroke:#D1D3D4;stroke-miterlimit:10;stroke-dasharray:2,3;}
	.st4{display:inline;fill:#D1D3D4;}
</style><g
     id="Layer_1"
     transform="translate(-30.228125,-25.9)"><g
       id="g40"><g
         id="g16"><path
           class="st0"
           d="M 124.9,76 121.3,64.6 H 108.2 L 104.4,76 h -4.7 l 12.9,-38.2 h 4.6 l 13,38.2 z M 116,47 c -0.9,-3 -1.1,-4.6 -1.1,-4.6 h -0.1 c 0,0 -0.2,1.6 -1.2,4.6 L 109,61.5 h 11.4 z"
           id="path4"
           inkscape:connector-curvature="0"
           style="fill:#ffffff" /><path
           class="st0"
           d="M 135.5,76 V 32.4 h 4.9 V 76 Z"
           id="path6"
           inkscape:connector-curvature="0"
           style="fill:#ffffff" /><path
           class="st0"
           d="m 157.8,76.3 c -5.4,0 -7.4,-3.9 -7.4,-7.6 V 49.1 H 147 V 46 h 3.4 v -6.9 l 4.9,-1.5 V 46 h 5.2 v 3.1 h -5.2 v 19.5 c 0,2.4 1.1,4.3 3.8,4.3 0.5,0 0.9,-0.1 1.4,-0.2 v 3.1 c -0.6,0.2 -1.5,0.5 -2.7,0.5 z"
           id="path8"
           inkscape:connector-curvature="0"
           style="fill:#ffffff" /><path
           class="st0"
           d="m 176.4,76.6 c -7.8,0 -11.4,-3.4 -11.4,-8.8 0,-7.9 7.4,-10.3 16.7,-11.2 v -1.8 c 0,-4.6 -2.8,-5.9 -6.6,-5.9 -2.9,0 -5.6,1.1 -7.2,1.9 l -1.2,-2.9 c 1.7,-0.9 5.1,-2.2 9.2,-2.2 5.6,0 10.4,2.4 10.4,9.7 v 19.2 c -2.2,1.1 -5.7,2 -9.9,2 z M 181.7,59 c -7.6,0.9 -12.1,2.6 -12.1,8.6 0,4.3 2.7,6.1 7.1,6.1 1.9,0 3.7,-0.3 4.9,-1 V 59 Z"
           id="path10"
           inkscape:connector-curvature="0"
           style="fill:#ffffff" /><path
           class="st0"
           d="m 197,40.3 c -1.6,0 -2.9,-1.2 -2.9,-2.7 0,-1.5 1.3,-2.7 2.9,-2.7 1.6,0 2.8,1.2 2.8,2.7 0,1.5 -1.2,2.7 -2.8,2.7 z M 194.6,76 V 46.1 h 4.9 V 76 Z"
           id="path12"
           inkscape:connector-curvature="0"
           style="fill:#ffffff" /><path
           class="st0"
           d="m 219.3,49.3 c -2.4,-0.7 -5.2,-0.5 -6.8,0.6 V 76 h -4.9 V 47.7 c 2.9,-1.5 5.8,-2.3 12.9,-2.1 z"
           id="path14"
           inkscape:connector-curvature="0"
           style="fill:#ffffff" /></g><g
         id="g38"><path
           class="st0"
           d="M 62.5,30.7 H 62.4 62.3 51.7 c -1.9,0 -2.4,1.8 -2.4,1.8 0,0 -6.3,16.7 -8,20.4 l 5.6,-6.1 9.9,-10.9 2.7,-2.9 c 1,-1.1 1.6,-1.6 2.1,-1.9 0.4,-0.4 0.8,-0.4 0.9,-0.4 0.1,0 0.1,0 0,0 z"
           id="path18"
           inkscape:connector-curvature="0"
           style="fill:#ffffff" /><polygon
           class="st0"
           points="71.2,54.7 71.2,54.8 70.4,52.1 "
           id="polygon20"
           style="fill:#ffffff" /><polygon
           class="st0"
           points="70.4,52.1 71.2,54.7 71.2,54.8 "
           id="polygon22"
           style="fill:#ffffff" /><polygon
           class="st0"
           points="70.4,52.1 71.2,54.7 71.2,54.8 "
           id="polygon24"
           style="fill:#ffffff" /><path
           class="st0"
           d="m 82.1,63.7 -13.5,-17.2 1.8,5.6 0.8,2.7 5.6,17.8 c 0.5,1.5 0.6,2.2 0.6,2.8 0,0.5 -0.1,0.8 -0.2,0.9 v 0 l 0.1,-0.1 5.1,-9.5 c 0.8,-1.6 -0.3,-3 -0.3,-3 z"
           id="path26"
           inkscape:connector-curvature="0"
           style="fill:#ffffff" /><path
           class="st0"
           d="M 70.4,52.1 68.6,46.5 64.2,32.7 c 0,0 -0.7,-2.1 -1.7,-2.1 -0.2,0 -0.5,0.1 -1,0.3 -0.5,0.3 -1.1,0.8 -2.1,1.9 L 56.7,35.7 67.3,48 c 0,0 2.2,2.5 3.5,5.9 0.1,0.3 0.3,0.6 0.4,1 v 0 -0.1 z"
           id="path28"
           inkscape:connector-curvature="0"
           style="fill:#ffffff" /><path
           class="st0"
           d="M 43.9,49.9 31.3,63.7 c 0,0 -1.4,1.6 -1,2.5 l 0.1,0.1 c 0.1,0.1 0.3,0.3 0.6,0.6 0.5,0.3 1.2,0.6 2.7,0.9 l 3.9,0.8 5.4,-15.2 c 0,0 1.1,-3.1 3.3,-5.9 0.2,-0.3 0.4,-0.6 0.6,-0.8 v 0 z"
           id="path30"
           inkscape:connector-curvature="0"
           style="fill:#ffffff" /><path
           class="st0"
           d="m 76.8,72.5 -0.7,-2.2 -0.5,-1.5 -15.9,3 c 0,0 -3.2,0.7 -6.8,0.1 -0.3,0 -0.6,-0.1 -0.9,-0.2 l 0.7,0.2 6.4,1.4 1,0.2 14.4,3.2 c 0,0 2,0.5 2.6,-0.4 v -0.1 c 0.1,-0.2 0.2,-0.5 0.2,-0.9 0.1,-0.5 0,-1.3 -0.5,-2.8 z"
           id="path32"
           inkscape:connector-curvature="0"
           style="fill:#ffffff" /><path
           class="st0"
           d="M 30.4,66.3 Z"
           id="path34"
           inkscape:connector-curvature="0"
           style="fill:#ffffff" /><path
           class="st0"
           d="M 59.2,73.4 52.8,72 52,71.8 33.8,67.8 c -1.5,-0.3 -2.2,-0.6 -2.7,-0.9 -0.4,-0.2 -0.5,-0.4 -0.6,-0.6 v 0 c 0.2,0.3 5.7,9.2 5.7,9.2 0.9,1.5 2.7,1.2 2.7,1.2 l 21.3,-3.2 v 0 z"
           id="path36"
           inkscape:connector-curvature="0"
           style="fill:#ffffff" /></g></g><line
       class="st1"
       x1="242.39999"
       y1="25.9"
       x2="242.39999"
       y2="87"
       id="line42"
       style="fill:none;stroke:#ffffff;stroke-width:0.69190001;stroke-miterlimit:10" /><g
       id="g62"><path
         class="st0"
         d="m 271.1,59.2 c -0.7,0 -1.4,-0.1 -2,-0.2 v 17.1 h -4.9 v -37 c 2.1,-1.2 4.7,-1.9 7.2,-1.9 7,0 10.4,4.1 10.4,10.8 0.1,6.7 -3.6,11.2 -10.7,11.2 z M 271.6,41 c -0.8,0 -1.7,0.1 -2.5,0.5 v 13.9 c 0.5,0.1 1.1,0.1 1.8,0.1 4.5,0 6,-3 6,-7.3 0.1,-4.4 -1.2,-7.2 -5.3,-7.2 z"
         id="path44"
         inkscape:connector-curvature="0"
         style="fill:#ffffff" /><path
         class="st0"
         d="m 293.5,76.6 c -2.7,0 -5.5,-0.6 -7.7,-1.9 V 39.1 c 2.2,-1.2 4.8,-1.9 7.5,-1.9 6.9,0 10.2,3.8 10.2,10.4 0,3.6 -1.9,7.2 -5.3,8.6 v 0.1 c 3.7,1.6 5.8,5 5.8,9.4 0,7.3 -3.9,10.9 -10.5,10.9 z M 293.2,41 c -0.9,0 -1.8,0.1 -2.7,0.5 v 13.4 h 1.5 c 4.3,0 6.5,-2.4 6.5,-7 0.1,-4.6 -1.3,-6.9 -5.3,-6.9 z m -1.1,17 h -1.6 v 14.1 c 0.8,0.3 1.8,0.5 2.7,0.5 3.7,0 5.8,-2.2 5.8,-7.2 0.1,-5 -2.3,-7.4 -6.9,-7.4 z"
         id="path46"
         inkscape:connector-curvature="0"
         style="fill:#ffffff" /><path
         class="st0"
         d="m 313.5,76.6 c -2.3,0 -4.7,-0.6 -6.5,-1.8 l 1.3,-3.9 c 1.2,0.8 2.9,1.3 4.4,1.3 3.1,0 4.9,-2.7 4.9,-5.5 0,-8.5 -10.3,-9.4 -10.3,-20.2 0,-5.7 3.6,-9.3 9.1,-9.3 2.3,0 4.4,0.6 6,1.8 l -1.1,3.6 c -1.1,-0.7 -2.6,-1.2 -4.2,-1.2 -2.9,0 -4.9,2.2 -4.9,5.2 0,8.4 10.4,9.3 10.4,20.2 0.1,5.4 -3.5,9.8 -9.1,9.8 z"
         id="path48"
         inkscape:connector-curvature="0"
         style="fill:#ffffff" /><path
         class="st0"
         d="m 361.8,76.1 h -4.6 L 353,50.9 c -0.2,-1.5 -0.4,-3.3 -0.5,-4.6 h -0.1 c -0.1,1.3 -0.3,3.1 -0.5,4.6 l -4.2,25.2 H 343 l -6.6,-38.4 h 5 l 3.7,25.8 c 0.2,1.6 0.3,3 0.4,4.5 h 0.1 c 0.1,-1.5 0.4,-3.1 0.6,-4.5 l 4.3,-25.8 h 4.1 l 4.3,25.8 c 0.2,1.5 0.4,3 0.5,4.5 h 0.1 c 0.1,-1.5 0.3,-3.1 0.5,-4.5 l 3.7,-25.8 h 4.6 z"
         id="path50"
         inkscape:connector-curvature="0"
         style="fill:#ffffff" /><path
         class="st0"
         d="m 378.4,76.6 c -6.4,0 -8.6,-6.1 -8.6,-14.4 0,-8.3 2.3,-14.4 8.6,-14.4 6.4,0 8.6,6.1 8.6,14.4 0,8.3 -2.2,14.4 -8.6,14.4 z m 0,-25.3 c -3,0 -3.8,4.4 -3.8,10.7 0,6.3 0.8,10.8 3.8,10.8 3,0 3.8,-4.4 3.8,-10.8 0,-6.3 -0.8,-10.7 -3.8,-10.7 z"
         id="path52"
         inkscape:connector-curvature="0"
         style="fill:#ffffff" /><path
         class="st0"
         d="m 400.7,52 c -0.6,-0.3 -1.5,-0.5 -2.4,-0.5 -0.8,0 -1.5,0.1 -2.2,0.4 v 24.2 h -4.8 V 49.6 c 1.9,-1.1 4.9,-1.8 7.6,-1.8 0.9,0 1.9,0.1 2.7,0.2 z"
         id="path54"
         inkscape:connector-curvature="0"
         style="fill:#ffffff" /><path
         class="st0"
         d="m 416.9,76.1 -6.1,-12 c -0.3,-0.7 -0.7,-1.6 -0.9,-2.2 h -0.1 v 14.2 h -4.7 V 37.7 h 4.7 v 23.6 h 0.1 c 0.3,-0.7 0.6,-1.4 0.9,-2 l 6,-11.1 h 5.2 l -7.8,13.4 8.1,14.6 h -5.4 z"
         id="path56"
         inkscape:connector-curvature="0"
         style="fill:#ffffff" /><path
         class="st0"
         d="m 430.3,76.6 c -2.2,0 -4.1,-0.5 -5.8,-1.8 l 1.2,-3.6 c 1.1,0.8 2.6,1.3 3.9,1.3 1.9,0 3.3,-1.5 3.3,-3.5 0,-5.8 -8.1,-5.8 -8.1,-13.8 0,-4.3 2.7,-7.5 7.2,-7.5 2.2,0 4,0.6 5.4,1.8 l -1.2,3.3 c -1,-0.7 -2.2,-1.2 -3.5,-1.2 -2.1,0 -3.2,1.5 -3.2,3.6 0,5.4 8.3,5.5 8.3,13.8 0.1,4.5 -3.2,7.6 -7.5,7.6 z"
         id="path58"
         inkscape:connector-curvature="0"
         style="fill:#ffffff" /><path
         class="st0"
         d="m 441.3,38.5 v 4.8 h -0.9 v -4.8 h -1 v -0.7 h 2.9 v 0.7 z m 5.3,4.8 -0.3,-3.7 c 0,-0.3 0,-0.5 0,-0.7 v 0 c 0,0.2 -0.1,0.4 -0.1,0.7 l -0.9,3.7 h -0.6 l -0.9,-3.7 c 0,-0.2 -0.1,-0.5 -0.1,-0.7 v 0 c 0,0.2 0,0.4 0,0.7 l -0.3,3.7 h -0.8 l 0.6,-5.5 h 0.9 l 0.8,3.4 c 0,0.2 0.1,0.4 0.1,0.7 v 0 c 0,-0.2 0.1,-0.5 0.1,-0.7 l 0.8,-3.4 h 0.9 l 0.6,5.5 z"
         id="path60"
         inkscape:connector-curvature="0"
         style="fill:#ffffff" /></g></g><g
     id="Guide"
     class="st2"
     style="display:none"
     transform="translate(-30.228125,-25.9)"><line
       class="st3"
       x1="0"
       y1="-85.300003"
       x2="498.20001"
       y2="-85.300003"
       id="line65"
       style="display:inline;fill:none;stroke:#d1d3d4;stroke-miterlimit:10;stroke-dasharray:2, 3" /><line
       class="st3"
       x1="0"
       y1="-39.900002"
       x2="498.20001"
       y2="-39.900002"
       id="line67"
       style="display:inline;fill:none;stroke:#d1d3d4;stroke-miterlimit:10;stroke-dasharray:2, 3" /><line
       class="st3"
       x1="30.6"
       y1="-116"
       x2="30.6"
       y2="-9.3000002"
       id="line69"
       style="display:inline;fill:none;stroke:#d1d3d4;stroke-miterlimit:10;stroke-dasharray:2, 3" /><line
       class="st3"
       x1="467.60001"
       y1="-116"
       x2="467.60001"
       y2="-9.3000002"
       id="line71"
       style="display:inline;fill:none;stroke:#d1d3d4;stroke-miterlimit:10;stroke-dasharray:2, 3" /><rect
       y="-116"
       class="st4"
       width="30.6"
       height="30.6"
       id="rect73"
       x="0"
       style="display:inline;fill:#d1d3d4" /><rect
       y="-39.900002"
       class="st4"
       width="30.6"
       height="30.6"
       id="rect75"
       x="0"
       style="display:inline;fill:#d1d3d4" /><rect
       x="467.60001"
       y="-116"
       class="st4"
       width="30.6"
       height="30.6"
       id="rect77"
       style="display:inline;fill:#d1d3d4" /><rect
       x="467.60001"
       y="-39.900002"
       class="st4"
       width="30.6"
       height="30.6"
       id="rect79"
       style="display:inline;fill:#d1d3d4" /><line
       class="st3"
       x1="0"
       y1="30.6"
       x2="478.29999"
       y2="30.6"
       id="line81"
       style="display:inline;fill:none;stroke:#d1d3d4;stroke-miterlimit:10;stroke-dasharray:2, 3" /><line
       class="st3"
       x1="0"
       y1="76.099998"
       x2="478.29999"
       y2="76.099998"
       id="line83"
       style="display:inline;fill:none;stroke:#d1d3d4;stroke-miterlimit:10;stroke-dasharray:2, 3" /><line
       class="st3"
       x1="30.6"
       y1="0"
       x2="30.6"
       y2="106.7"
       id="line85"
       style="display:inline;fill:none;stroke:#d1d3d4;stroke-miterlimit:10;stroke-dasharray:2, 3" /><line
       class="st3"
       x1="447.60001"
       y1="0"
       x2="447.60001"
       y2="106.7"
       id="line87"
       style="display:inline;fill:none;stroke:#d1d3d4;stroke-miterlimit:10;stroke-dasharray:2, 3" /><rect
       class="st4"
       width="30.6"
       height="30.6"
       id="rect89"
       x="0"
       y="0"
       style="display:inline;fill:#d1d3d4" /><rect
       y="76.099998"
       class="st4"
       width="30.6"
       height="30.6"
       id="rect91"
       x="0"
       style="display:inline;fill:#d1d3d4" /><rect
       x="447.60001"
       class="st4"
       width="30.6"
       height="30.6"
       id="rect93"
       y="0"
       style="display:inline;fill:#d1d3d4" /><rect
       x="447.60001"
       y="76.099998"
       class="st4"
       width="30.6"
       height="30.6"
       id="rect95"
       style="display:inline;fill:#d1d3d4" /><line
       class="st3"
       x1="0"
       y1="146.7"
       x2="530.59998"
       y2="146.7"
       id="line97"
       style="display:inline;fill:none;stroke:#d1d3d4;stroke-miterlimit:10;stroke-dasharray:2, 3" /><line
       class="st3"
       x1="0"
       y1="192"
       x2="530.59998"
       y2="192"
       id="line99"
       style="display:inline;fill:none;stroke:#d1d3d4;stroke-miterlimit:10;stroke-dasharray:2, 3" /><line
       class="st3"
       x1="30.6"
       y1="116"
       x2="30.6"
       y2="222.7"
       id="line101"
       style="display:inline;fill:none;stroke:#d1d3d4;stroke-miterlimit:10;stroke-dasharray:2, 3" /><line
       class="st3"
       x1="500"
       y1="116"
       x2="500"
       y2="222.7"
       id="line103"
       style="display:inline;fill:none;stroke:#d1d3d4;stroke-miterlimit:10;stroke-dasharray:2, 3" /><rect
       y="116"
       class="st4"
       width="30.6"
       height="30.6"
       id="rect105"
       x="0"
       style="display:inline;fill:#d1d3d4" /><rect
       y="192.10001"
       class="st4"
       width="30.6"
       height="30.6"
       id="rect107"
       x="0"
       style="display:inline;fill:#d1d3d4" /><rect
       x="500"
       y="116"
       class="st4"
       width="30.6"
       height="30.6"
       id="rect109"
       style="display:inline;fill:#d1d3d4" /><rect
       x="500"
       y="192.10001"
       class="st4"
       width="30.6"
       height="30.6"
       id="rect111"
       style="display:inline;fill:#d1d3d4" /><line
       class="st3"
       x1="0"
       y1="262.70001"
       x2="552.29999"
       y2="262.70001"
       id="line113"
       style="display:inline;fill:none;stroke:#d1d3d4;stroke-miterlimit:10;stroke-dasharray:2, 3" /><line
       class="st3"
       x1="0"
       y1="308"
       x2="552.29999"
       y2="308"
       id="line115"
       style="display:inline;fill:none;stroke:#d1d3d4;stroke-miterlimit:10;stroke-dasharray:2, 3" /><line
       class="st3"
       x1="30.6"
       y1="232"
       x2="30.6"
       y2="338.70001"
       id="line117"
       style="display:inline;fill:none;stroke:#d1d3d4;stroke-miterlimit:10;stroke-dasharray:2, 3" /><line
       class="st3"
       x1="521.70001"
       y1="232.3"
       x2="521.70001"
       y2="339"
       id="line119"
       style="display:inline;fill:none;stroke:#d1d3d4;stroke-miterlimit:10;stroke-dasharray:2, 3" /><rect
       y="232"
       class="st4"
       width="30.6"
       height="30.6"
       id="rect121"
       x="0"
       style="display:inline;fill:#d1d3d4" /><rect
       y="308.10001"
       class="st4"
       width="30.6"
       height="30.6"
       id="rect123"
       x="0"
       style="display:inline;fill:#d1d3d4" /><rect
       x="521.70001"
       y="232"
       class="st4"
       width="30.6"
       height="30.6"
       id="rect125"
       style="display:inline;fill:#d1d3d4" /><rect
       x="521.70001"
       y="308.10001"
       class="st4"
       width="30.6"
       height="30.6"
       id="rect127"
       style="display:inline;fill:#d1d3d4" /><line
       class="st3"
       x1="0"
       y1="378.70001"
       x2="590.79999"
       y2="378.70001"
       id="line129"
       style="display:inline;fill:none;stroke:#d1d3d4;stroke-miterlimit:10;stroke-dasharray:2, 3" /><line
       class="st3"
       x1="0"
       y1="424"
       x2="590.79999"
       y2="424"
       id="line131"
       style="display:inline;fill:none;stroke:#d1d3d4;stroke-miterlimit:10;stroke-dasharray:2, 3" /><line
       class="st3"
       x1="30.6"
       y1="348"
       x2="30.6"
       y2="454.70001"
       id="line133"
       style="display:inline;fill:none;stroke:#d1d3d4;stroke-miterlimit:10;stroke-dasharray:2, 3" /><line
       class="st3"
       x1="560.20001"
       y1="348"
       x2="560.20001"
       y2="454.70001"
       id="line135"
       style="display:inline;fill:none;stroke:#d1d3d4;stroke-miterlimit:10;stroke-dasharray:2, 3" /><rect
       y="348"
       class="st4"
       width="30.6"
       height="30.6"
       id="rect137"
       x="0"
       style="display:inline;fill:#d1d3d4" /><rect
       y="424.10001"
       class="st4"
       width="30.6"
       height="30.6"
       id="rect139"
       x="0"
       style="display:inline;fill:#d1d3d4" /><rect
       x="560.20001"
       y="348"
       class="st4"
       width="30.6"
       height="30.6"
       id="rect141"
       style="display:inline;fill:#d1d3d4" /><rect
       x="560.20001"
       y="424.10001"
       class="st4"
       width="30.6"
       height="30.6"
       id="rect143"
       style="display:inline;fill:#d1d3d4" /><line
       class="st3"
       x1="0"
       y1="494.60001"
       x2="415.79999"
       y2="494.60001"
       id="line145"
       style="display:inline;fill:none;stroke:#d1d3d4;stroke-miterlimit:10;stroke-dasharray:2, 3" /><line
       class="st3"
       x1="0"
       y1="540.09998"
       x2="415.79999"
       y2="540.09998"
       id="line147"
       style="display:inline;fill:none;stroke:#d1d3d4;stroke-miterlimit:10;stroke-dasharray:2, 3" /><line
       class="st3"
       x1="30.6"
       y1="464"
       x2="30.6"
       y2="570.70001"
       id="line149"
       style="display:inline;fill:none;stroke:#d1d3d4;stroke-miterlimit:10;stroke-dasharray:2, 3" /><line
       class="st3"
       x1="385.10001"
       y1="464"
       x2="385.10001"
       y2="570.70001"
       id="line151"
       style="display:inline;fill:none;stroke:#d1d3d4;stroke-miterlimit:10;stroke-dasharray:2, 3" /><rect
       y="464"
       class="st4"
       width="30.6"
       height="30.6"
       id="rect153"
       x="0"
       style="display:inline;fill:#d1d3d4" /><rect
       y="540.09998"
       class="st4"
       width="30.6"
       height="30.6"
       id="rect155"
       x="0"
       style="display:inline;fill:#d1d3d4" /><rect
       x="385.10001"
       y="464"
       class="st4"
       width="30.6"
       height="30.6"
       id="rect157"
       style="display:inline;fill:#d1d3d4" /><rect
       x="385.10001"
       y="540.09998"
       class="st4"
       width="30.6"
       height="30.6"
       id="rect159"
       style="display:inline;fill:#d1d3d4" /></g></svg>