<svg xmlns="http://www.w3.org/2000/svg" width="390.688" height="65.188" viewBox="0 0 195.344 32.594">
  <metadata><?xpacket begin="﻿" id="W5M0MpCehiHzreSzNTczkc9d"?>
<x:xmpmeta xmlns:x="adobe:ns:meta/" x:xmptk="Adobe XMP Core 5.6-c138 79.159824, 2016/09/14-01:09:01        ">
   <rdf:RDF xmlns:rdf="http://www.w3.org/1999/02/22-rdf-syntax-ns#">
      <rdf:Description rdf:about=""/>
   </rdf:RDF>
</x:xmpmeta>
                                                                                                    
                                                                                                    
                                                                                                    
                                                                                                    
                                                                                                    
                                                                                                    
                                                                                                    
                                                                                                    
                                                                                                    
                                                                                                    
                                                                                                    
                                                                                                    
                                                                                                    
                                                                                                    
                                                                                                    
                                                                                                    
                                                                                                    
                                                                                                    
                                                                                                    
                                                                                                    
                           
<?xpacket end="w"?></metadata>
<defs>
    <style>
      .cls-1 {
        fill: #00b5ef;
        fill-rule: evenodd;
      }
    </style>
  </defs>
  <path id="PBScloud.io" class="cls-1" d="M70.29,50.151c0-5.043-3.034-9.02-10.865-9.02a20.121,20.121,0,0,0-8.569,1.64V69.749h6.519V59.13l0.9,0.082C66.764,59.991,70.29,55.44,70.29,50.151Zm-6.314-.041c0,3.69-1.517,5.453-5.7,5.248l-0.9-.041V45.231a5.436,5.436,0,0,1,2.009-.328C62.746,44.9,63.976,46.584,63.976,50.11ZM93.5,61.959c0-3.9-3.321-6.355-5.863-7.011V54.866a6.426,6.426,0,0,0,5.043-6.232c0-4.223-3.444-7.5-10.865-7.5a19.929,19.929,0,0,0-8.692,1.64V68.519c2.091,1.066,5.125,1.64,9.02,1.64C89.15,70.159,93.5,67.576,93.5,61.959ZM86.321,49.085c0,3.075-1.394,4.428-5.576,4.428H79.433V45.19a7.2,7.2,0,0,1,2.419-.328C84.886,44.862,86.321,46.215,86.321,49.085Zm0.533,12.628c0,3.239-1.8,4.469-4.879,4.469a6.985,6.985,0,0,1-2.542-.41V56.711h1.312C85.3,56.711,86.854,58.351,86.854,61.713Zm25.091-.41c0-2.87-.779-5.863-6.232-8.323-2.378-1.066-3.813-2.091-3.813-4.141,0-2.009,1.189-3.239,3.4-3.239a8.177,8.177,0,0,1,4.223,1.23l1.394-4.059a12,12,0,0,0-6.6-1.64,8.507,8.507,0,0,0-8.938,8.692c0,2.747,1.23,5.822,5.617,7.79,2.87,1.271,3.936,2.378,3.936,4.182,0,2.009-1.435,3.362-3.772,3.362a8.456,8.456,0,0,1-4.551-1.312l-1.517,4.633c1.6,1.066,3.9,1.681,7.38,1.681C108.05,70.159,111.945,66.387,111.945,61.3Zm16.646,7.257-1.353-3.854a3.8,3.8,0,0,1-2.665.9c-2.542,0-4.059-2.583-4.059-7.052,0-4.51,1.312-7.052,4.1-7.052a3.983,3.983,0,0,1,2.624.861l1.312-3.526a8.29,8.29,0,0,0-5.412-1.6c-4.92,0-9.061,3.936-9.061,11.4,0,7.421,3.854,11.521,9.1,11.521C125.967,70.159,127.648,69.462,128.591,68.56Zm8.774,1.189V37.563h-6.4V69.749h6.4Zm22.468-11.07c0-6.6-3.362-11.439-9.8-11.439-6.355,0-9.717,4.838-9.717,11.439s3.362,11.48,9.758,11.48S159.833,65.28,159.833,58.679Zm-6.355-.082c0,3.977-.574,7.216-3.4,7.216-2.788,0-3.4-3.239-3.4-7.216,0-3.936.574-7.38,3.4-7.38S153.478,54.661,153.478,58.6Zm27.675,9.84V47.65h-6.4V65.321a5.5,5.5,0,0,1-2.665.533,2.706,2.706,0,0,1-3.034-2.911V47.65h-6.4V62.492c0,5.33,3.034,7.667,9.266,7.667A20.9,20.9,0,0,0,181.153,68.437Zm22.139,0.082V37.563h-6.355V47.773A13.551,13.551,0,0,0,193.7,47.4c-5.7,0-9.717,4.346-9.717,11.439,0,7.38,4.182,11.316,10.865,11.316C198.659,70.159,201.283,69.585,203.292,68.519Zm-6.355-2.747a4.26,4.26,0,0,1-1.968.328c-3.239,0-4.674-2.747-4.674-7.544,0-4.551,1.353-7.585,4.879-7.585a5.91,5.91,0,0,1,1.763.246V65.772Zm16.933,0.656a3.629,3.629,0,1,0-3.649,3.649A3.657,3.657,0,0,0,213.87,66.428Zm10.045-25.133a3.431,3.431,0,0,0-6.806,0A3.431,3.431,0,0,0,223.915,41.295Zm-0.2,28.454V47.65h-6.4v22.1h6.4Zm22.468-11.07c0-6.6-3.362-11.439-9.8-11.439-6.356,0-9.718,4.838-9.718,11.439s3.362,11.48,9.759,11.48S246.178,65.28,246.178,58.679Zm-6.355-.082c0,3.977-.574,7.216-3.4,7.216-2.788,0-3.4-3.239-3.4-7.216,0-3.936.574-7.38,3.4-7.38S239.823,54.661,239.823,58.6Z" transform="translate(-50.844 -37.563)"/>
</svg>
