<svg id="Layer_1" data-name="Layer 1" xmlns="http://www.w3.org/2000/svg" viewBox="0 0 297.36 297.36"><defs><style>.cls-1{fill:#fff;}</style></defs><title>play_button</title><path class="cls-1" d="M293.56,544.15a150.29,150.29,0,0,1-119.11-58.66,150.23,150.23,0,0,1,11.09-196.08l.16-.16.21-.2a149.51,149.51,0,0,1,104.46-42.26c82.86,0,150.27,67.41,150.27,150.27,0,4.84-.24,9.77-.72,14.64a150.58,150.58,0,0,1-41.54,89.83l-.15.16-.21.2A149.52,149.52,0,0,1,293.56,544.15ZM290.38,264A127.73,127.73,0,0,0,160.53,393.88,133,133,0,0,0,386,489.5,133.27,133.27,0,0,0,422.78,410c.42-4.32.63-8.68.63-13C423.42,323.7,363.74,264,290.38,264Z" transform="translate(-143.29 -246.79)"/><path class="cls-1" d="M267.78,468.06c-9.23,7-16.79,3.29-16.79-8.32V331.36c0-11.61,7.66-15.5,17-8.64l86.52,58.66c12.73,9.4,9.48,18.21.24,25.25Z" transform="translate(-143.29 -246.79)"/></svg>